<svg xmlns="http://www.w3.org/2000/svg" viewBox="0 0 256 256">
  <symbol id="plug" viewBox="0 0 256 256">
    <path
      fill="currentColor"
      d="M237.66,66.34a8,8,0,0,0-11.32,0L192,100.69,155.31,64l34.35-34.34a8,8,0,1,0-11.32-11.32L144,52.69,117.66,26.34a8,8,0,0,0-11.32,11.32L112.69,44l-53,53a40,40,0,0,0,0,56.57l15.71,15.71L26.34,218.34a8,8,0,0,0,11.32,11.32l49.09-49.09,15.71,15.71a40,40,0,0,0,56.57,0l53-53,6.34,6.35a8,8,0,0,0,11.32-11.32L203.31,112l34.35-34.34A8,8,0,0,0,237.66,66.34ZM147.72,185a24,24,0,0,1-33.95,0L71,142.23a24,24,0,0,1,0-33.95l53-53L200.69,132Z"
    />
  </symbol>
  <symbol id="cloud-slash" viewBox="0 0 256 256">
    <path
      fill="currentColor"
      d="M53.92,34.62A8,8,0,1,0,42.08,45.38L81.32,88.55l-.06.12A65,65,0,0,0,72,88a64,64,0,0,0,0,128h88a87.34,87.34,0,0,0,31.8-5.93l10.28,11.31a8,8,0,1,0,11.84-10.76ZM160,200H72a48,48,0,0,1,0-96c1.1,0,2.2,0,3.3.12A88.4,88.4,0,0,0,72,128a8,8,0,0,0,16,0,72.25,72.25,0,0,1,5.06-26.54l87,95.7A71.66,71.66,0,0,1,160,200Zm88-72a87.89,87.89,0,0,1-22.35,58.61A8,8,0,0,1,213.71,176,72,72,0,0,0,117.37,70a8,8,0,0,1-9.48-12.89A88,88,0,0,1,248,128Z"
    />
  </symbol>
  <symbol id="play" viewBox="0 0 256 256">
    <path
      fill="currentColor"
      d="M232.4,114.49,88.32,26.35a16,16,0,0,0-16.2-.3A15.86,15.86,0,0,0,64,39.87V216.13A15.94,15.94,0,0,0,80,232a16.07,16.07,0,0,0,8.36-2.35L232.4,141.51a15.81,15.81,0,0,0,0-27ZM80,215.94V40l143.83,88Z"
    />
  </symbol>
  <symbol id="stop" viewBox="0 0 256 256">
    <path
      fill="currentColor"
      d="M200,40H56A16,16,0,0,0,40,56V200a16,16,0,0,0,16,16H200a16,16,0,0,0,16-16V56A16,16,0,0,0,200,40Zm0,160H56V56H200V200Z"
    />
  </symbol>
  <symbol id="pulse" viewBox="0 0 256 256">
    <path
      fill="currentColor"
      d="M240,128a8,8,0,0,1-8,8H204.94l-37.78,75.58A8,8,0,0,1,160,216h-.4a8,8,0,0,1-7.08-5.14L95.35,60.76,63.28,131.31A8,8,0,0,1,56,136H24a8,8,0,0,1,0-16H50.85L88.72,36.69a8,8,0,0,1,14.76.46l57.51,151,31.85-63.71A8,8,0,0,1,200,120h32A8,8,0,0,1,240,128Z"
    />
  </symbol>
  <symbol id="map-trifold" viewBox="0 0 256 256">
    <path
      fill="currentColor"
      d="M228.92,49.69a8,8,0,0,0-6.86-1.45L160.93,63.52,99.58,32.84a8,8,0,0,0-5.52-.6l-64,16A8,8,0,0,0,24,56V200a8,8,0,0,0,9.94,7.76l61.13-15.28,61.35,30.68A8.15,8.15,0,0,0,160,224a8,8,0,0,0,1.94-.24l64-16A8,8,0,0,0,232,200V56A8,8,0,0,0,228.92,49.69ZM104,52.94l48,24V203.06l-48-24ZM40,62.25l48-12v127.5l-48,12Zm176,131.5-48,12V78.25l48-12Z"
    />
  </symbol>
  <symbol id="crosshair" viewBox="0 0 256 256">
    <path
      fill="currentColor"
      d="M232,120h-8.34A96.14,96.14,0,0,0,136,32.34V24a8,8,0,0,0-16,0v8.34A96.14,96.14,0,0,0,32.34,120H24a8,8,0,0,0,0,16h8.34A96.14,96.14,0,0,0,120,223.66V232a8,8,0,0,0,16,0v-8.34A96.14,96.14,0,0,0,223.66,136H232a8,8,0,0,0,0-16Zm-96,87.6V200a8,8,0,0,0-16,0v7.6A80.15,80.15,0,0,1,48.4,136H56a8,8,0,0,0,0-16H48.4A80.15,80.15,0,0,1,120,48.4V56a8,8,0,0,0,16,0V48.4A80.15,80.15,0,0,1,207.6,120H200a8,8,0,0,0,0,16h7.6A80.15,80.15,0,0,1,136,207.6ZM128,88a40,40,0,1,0,40,40A40,40,0,0,0,128,88Zm0,64a24,24,0,1,1,24-24A24,24,0,0,1,128,152Z"
    />
  </symbol>
  <symbol id="folder-open" viewBox="0 0 256 256">
    <path
      fill="currentColor"
      d="M245,110.64A16,16,0,0,0,232,104H216V88a16,16,0,0,0-16-16H130.67L102.94,51.2a16.14,16.14,0,0,0-9.6-3.2H40A16,16,0,0,0,24,64V208h0a8,8,0,0,0,8,8H211.1a8,8,0,0,0,7.59-5.47l28.49-85.47A16.05,16.05,0,0,0,245,110.64ZM93.34,64,123.2,86.4A8,8,0,0,0,128,88h72v16H69.77a16,16,0,0,0-15.18,10.94L40,158.7V64Zm112,136H43.1l26.67-80H232Z"
    />
  </symbol>
</svg>
